<?xml version="1.0" encoding="utf-8"?>
<svg xmlns="http://www.w3.org/2000/svg" version="1.1" viewBox="0 0 1400 440">
	<title>The titlepage for the Standard Ebooks edition of The Life of Buffalo Bill, by William F. Cody</title>
	<g aria-label="THE LIFE">
		<path d="M485.31,68.25l0.00-15.44l54.27,0.00l0.00,15.44l-18.34,0.00l0.00,61.75l-17.59,0.00l0.00-61.75l-18.34,0.00z"/>
		<path d="M568.53,99.03l0.00,30.97l-17.59,0.00l0.00-77.19l17.59,0.00l0.00,30.78l24.89,0.00l0.00-30.78l17.59,0.00l0.00,77.19l-17.59,0.00l0.00-30.97l-24.89,0.00z"/>
		<path d="M671.40,52.81l0.00,15.44l-26.57,0.00l0.00,15.35l25.45,0.00l0.00,15.44l-25.45,0.00l0.00,15.53l26.57,0.00l0.00,15.44l-44.16,0.00l0.00-77.19l44.16,0.00z"/>
		<path d="M734.64,52.81l0.00,61.75l26.57,0.00l0.00,15.44l-44.16,0.00l0.00-77.19l17.59,0.00z"/>
		<path d="M792.51,52.81l0.00,77.19l-17.59,0.00l0.00-77.19l17.59,0.00z"/>
		<path d="M853.37,52.81l0.00,15.44l-27.04,0.00l0.00,15.35l24.98,0.00l0.00,15.44l-24.98,0.00l0.00,30.97l-17.59,0.00l0.00-77.19l44.63,0.00z"/>
		<path d="M910.95,52.81l0.00,15.44l-26.57,0.00l0.00,15.35l25.45,0.00l0.00,15.44l-25.45,0.00l0.00,15.53l26.57,0.00l0.00,15.44l-44.16,0.00l0.00-77.19l44.16,0.00z"/>
	</g>
	<g aria-label="OF BUFFALO BILL">
		<path d="M254.10,191.36c0.00-22.55,17.68-39.95,38.92-39.95c21.43,0.00,38.83,17.40,38.83,39.95s-16.65,40.05-38.83,40.05c-22.83,0.00-38.92-17.50-38.92-40.05z  M273.09,191.36c0.00,11.51,5.52,23.02,19.93,23.02c14.04,0.00,19.84-11.51,19.84-23.02s-6.18-23.02-19.84-23.02c-13.57,0.00-19.93,11.51-19.93,23.02z"/>
		<path d="M389.25,152.81l0.00,15.44l-27.04,0.00l0.00,15.35l24.98,0.00l0.00,15.44l-24.98,0.00l0.00,30.97l-17.59,0.00l0.00-77.19l44.63,0.00z"/>
		<path d="M433.22,152.81l23.95,0.00c13.29,0.00,23.77,4.96,23.77,19.65c0.00,7.11-3.09,13.19-9.64,16.56c9.64,1.68,16.47,7.02,16.47,19.46c0.00,12.73-9.26,21.52-25.26,21.52l-29.29,0.00l0.00-77.19z  M450.81,183.03l1.40,0.00c7.58,0.00,11.70-2.34,11.70-8.80c0.00-5.52-4.02-7.86-11.70-7.86l-1.40,0.00l0.00,16.65z  M450.81,216.43l5.52,0.00c8.33,0.00,12.91-2.53,12.91-8.61c0.00-7.11-4.58-9.64-12.91-9.64l-5.52,0.00l0.00,18.25z"/>
		<path d="M559.85,152.81l0.00,49.78c0.00,19.09-10.48,28.82-30.13,28.82s-30.13-9.73-30.13-28.82l0.00-49.78l17.59,0.00l0.00,44.63c0.00,12.91,3.93,16.65,12.54,16.65s12.54-3.74,12.54-16.65l0.00-44.63l17.59,0.00z"/>
		<path d="M619.78,152.81l0.00,15.44l-27.04,0.00l0.00,15.35l24.98,0.00l0.00,15.44l-24.98,0.00l0.00,30.97l-17.59,0.00l0.00-77.19l44.63,0.00z"/>
		<path d="M677.83,152.81l0.00,15.44l-27.04,0.00l0.00,15.35l24.98,0.00l0.00,15.44l-24.98,0.00l0.00,30.97l-17.59,0.00l0.00-77.19l44.63,0.00z"/>
		<path d="M727.18,152.81l31.16,77.19l-18.90,0.00l-5.71-15.44l-29.38,0.00l-5.71,15.44l-18.90,0.00l31.16-77.19l16.28,0.00z  M727.74,199.12l-8.61-22.46l-0.19,0.00l-8.61,22.46l17.40,0.00z"/>
		<path d="M783.92,152.81l0.00,61.75l26.57,0.00l0.00,15.44l-44.16,0.00l0.00-77.19l17.59,0.00z"/>
		<path d="M820.74,191.36c0.00-22.55,17.68-39.95,38.92-39.95c21.43,0.00,38.83,17.40,38.83,39.95s-16.65,40.05-38.83,40.05c-22.83,0.00-38.92-17.50-38.92-40.05z  M839.73,191.36c0.00,11.51,5.52,23.02,19.93,23.02c14.04,0.00,19.84-11.51,19.84-23.02s-6.18-23.02-19.84-23.02c-13.57,0.00-19.93,11.51-19.93,23.02z"/>
		<path d="M941.80,152.81l23.95,0.00c13.29,0.00,23.77,4.96,23.77,19.65c0.00,7.11-3.09,13.19-9.64,16.56c9.64,1.68,16.47,7.02,16.47,19.46c0.00,12.73-9.26,21.52-25.26,21.52l-29.29,0.00l0.00-77.19z  M959.39,183.03l1.40,0.00c7.58,0.00,11.70-2.34,11.70-8.80c0.00-5.52-4.02-7.86-11.70-7.86l-1.40,0.00l0.00,16.65z  M959.39,216.43l5.52,0.00c8.33,0.00,12.91-2.53,12.91-8.61c0.00-7.11-4.58-9.64-12.91-9.64l-5.52,0.00l0.00,18.25z"/>
		<path d="M1026.71,152.81l0.00,77.19l-17.59,0.00l0.00-77.19l17.59,0.00z"/>
		<path d="M1060.53,152.81l0.00,61.75l26.57,0.00l0.00,15.44l-44.16,0.00l0.00-77.19l17.59,0.00z"/>
		<path d="M1118.39,152.81l0.00,61.75l26.57,0.00l0.00,15.44l-44.16,0.00l0.00-77.19l17.59,0.00z"/>
	</g>
	<g aria-label="WILLIAM F. CODY">
		<path d="M398.16,390.00l-9.26-32.49l-9.26,32.49l-14.67,0.00l-16.49-57.89l14.67,0.00l9.89,39.72l0.35,0.00l10.53-39.72l9.96,0.00l10.53,39.72l0.35,0.00l9.89-39.72l14.60,0.00l-16.49,57.89l-14.60,0.00z"/>
		<path d="M450.60,332.11l0.00,57.89l-13.19,0.00l0.00-57.89l13.19,0.00z"/>
		<path d="M477.21,332.11l0.00,46.32l19.93,0.00l0.00,11.58l-33.12,0.00l0.00-57.89l13.19,0.00z"/>
		<path d="M521.86,332.11l0.00,46.32l19.93,0.00l0.00,11.58l-33.12,0.00l0.00-57.89l13.19,0.00z"/>
		<path d="M566.51,332.11l0.00,57.89l-13.19,0.00l0.00-57.89l13.19,0.00z"/>
		<path d="M609.33,332.11l23.37,57.89l-14.18,0.00l-4.28-11.58l-22.04,0.00l-4.28,11.58l-14.18,0.00l23.37-57.89l12.21,0.00z  M609.75,366.84l-6.46-16.84l-0.14,0.00l-6.46,16.84l13.05,0.00z"/>
		<path d="M687.81,390.00l-2.74-34.32l-0.35,0.00l-11.86,33.96l-7.86,0.00l-11.86-33.96l-0.35,0.00l-2.74,34.32l-13.19,0.00l5.19-57.89l14.04,0.00l12.84,33.40l12.84-33.40l14.04,0.00l5.19,57.89l-13.19,0.00z"/>
		<path d="M768.96,332.11l0.00,11.58l-20.28,0.00l0.00,11.51l18.74,0.00l0.00,11.58l-18.74,0.00l0.00,23.23l-13.19,0.00l0.00-57.89l33.47,0.00z"/>
		<path d="M784.77,374.98c4.49,0.00,8.07,3.58,8.07,8.07c0.00,4.42-3.58,8.00-8.07,8.00c-4.42,0.00-8.00-3.58-8.00-8.00c0.00-4.49,3.58-8.07,8.00-8.07z"/>
		<path d="M858.98,378.07c6.74,0.00,11.37-3.58,11.37-3.58l5.61,11.23s-6.46,5.33-19.02,5.33c-16.35,0.00-31.37-13.33-31.37-29.89c0.00-16.63,14.95-30.11,31.37-30.11c12.56,0.00,19.02,5.33,19.02,5.33l-5.61,11.23s-4.63-3.58-11.37-3.58c-13.26,0.00-19.09,9.26-19.09,16.98c0.00,7.79,5.82,17.05,19.09,17.05z"/>
		<path d="M883.42,361.02c0.00-16.91,13.26-29.96,29.19-29.96c16.07,0.00,29.12,13.05,29.12,29.96s-12.49,30.04-29.12,30.04c-17.12,0.00-29.19-13.12-29.19-30.04z  M897.67,361.02c0.00,8.63,4.14,17.26,14.95,17.26c10.53,0.00,14.88-8.63,14.88-17.26s-4.63-17.26-14.88-17.26c-10.18,0.00-14.95,8.63-14.95,17.26z"/>
		<path d="M952.56,332.11l16.77,0.00c15.86,0.00,29.19,12.07,29.19,28.91c0.00,16.91-13.26,28.98-29.19,28.98l-16.77,0.00l0.00-57.89z  M965.75,378.21l2.04,0.00c9.75,0.00,16.42-7.44,16.49-17.12c0.00-9.68-6.67-17.19-16.49-17.19l-2.04,0.00l0.00,34.32z"/>
		<path d="M996.72,332.11l15.86,0.00l12.07,18.53l12.07-18.53l15.86,0.00l-21.33,31.93l0.00,25.96l-13.19,0.00l0.00-25.96z"/>
	</g>
</svg>
